<?xml version="1.0" encoding="UTF-8"?>
<!DOCTYPE svg PUBLIC "-//W3C//DTD SVG 1.1//EN" "http://www.w3.org/Graphics/SVG/1.1/DTD/svg11.dtd">
<!-- Creator: CorelDRAW 2019 (64-Bit) -->
<svg xmlns="http://www.w3.org/2000/svg" xml:space="preserve" width="3.8555in" height="3.86184in" version="1.1" style="shape-rendering:geometricPrecision; text-rendering:geometricPrecision; image-rendering:optimizeQuality; fill-rule:evenodd; clip-rule:evenodd"
viewBox="0 0 5226.68 5235.29"
 xmlns:xlink="http://www.w3.org/1999/xlink">
 <defs>
  <style type="text/css">
   <![CDATA[
    .fil0 {fill:#ED3237;fill-rule:nonzero}
   ]]>
  </style>
 </defs>
 <g id="Layer_x0020_1">
  <metadata id="CorelCorpID_0Corel-Layer"/>
  <path class="fil0" d="M3355.95 2817.28l1870.73 -70.56c-53.35,724.54 -323.55,1321.73 -810.59,1788.12 -487.04,466.39 -1080.79,700.45 -1779.52,700.45 -740.03,0 -1363.03,-256.43 -1872.45,-771.01 -509.42,-514.58 -764.12,-1144.46 -764.12,-1889.66 0,-709.06 256.43,-1314.85 771.01,-1819.1 514.58,-504.26 1130.7,-755.52 1850.08,-755.52 628.17,0 1182.33,197.91 1664.21,593.75 480.16,397.55 779.61,901.8 896.64,1516.2l-1910.31 70.56c-165.22,-215.12 -373.46,-321.83 -624.72,-321.83 -215.13,0 -392.39,70.56 -530.07,211.68 -137.68,141.13 -206.52,320.11 -206.52,535.23 0,218.57 72.28,400.99 218.57,549 146.28,148.01 328.71,222.01 547.28,222.01 318.38,0 545.56,-185.87 679.79,-559.33z"/>
 </g>
</svg>
