<?xml version="1.0" encoding="UTF-8"?>
<!DOCTYPE svg PUBLIC "-//W3C//DTD SVG 1.1//EN" "http://www.w3.org/Graphics/SVG/1.1/DTD/svg11.dtd">
<!-- Creator: CorelDRAW 2019 (64-Bit) -->
<svg xmlns="http://www.w3.org/2000/svg" xml:space="preserve" width="5.24462in" height="0.834232in" version="1.1" style="shape-rendering:geometricPrecision; text-rendering:geometricPrecision; image-rendering:optimizeQuality; fill-rule:evenodd; clip-rule:evenodd"
viewBox="0 0 4883.22 776.75"
 xmlns:xlink="http://www.w3.org/1999/xlink">
 <defs>
  <style type="text/css">
   <![CDATA[
    .str0 {stroke:#373435;stroke-width:6.47;stroke-miterlimit:2.61313}
    .fil2 {fill:#373435}
    .fil1 {fill:#373435;fill-rule:nonzero}
    .fil0 {fill:#ED3237;fill-rule:nonzero}
   ]]>
  </style>
 </defs>
 <g id="Layer_x0020_1">
  <metadata id="CorelCorpID_0Corel-Layer"/>
  <g id="_2338789623232">
   <g>
    <path class="fil0" d="M337.06 526.63l187.89 -7.09c-5.36,72.77 -32.5,132.75 -81.41,179.59 -48.92,46.84 -108.55,70.35 -178.73,70.35 -74.33,0 -136.9,-25.76 -188.06,-77.44 -51.16,-51.68 -76.75,-114.95 -76.75,-189.79 0,-71.21 25.76,-132.06 77.44,-182.7 51.68,-50.65 113.56,-75.88 185.82,-75.88 63.09,0 118.75,19.88 167.15,59.63 48.23,39.93 78.3,90.58 90.06,152.28l-191.86 7.09c-16.59,-21.61 -37.51,-32.32 -62.75,-32.32 -21.61,0 -39.41,7.09 -53.24,21.26 -13.83,14.18 -20.74,32.15 -20.74,53.76 0,21.95 7.26,40.27 21.95,55.14 14.69,14.86 33.01,22.29 54.97,22.29 31.98,0 54.79,-18.67 68.27,-56.17zm509.91 -282.96c71.73,0 133.09,25.76 184.26,77.27 51.34,51.51 76.92,113.22 76.92,185.12 0,72.94 -25.93,135.17 -77.78,186.51 -52.03,51.33 -114.6,76.92 -187.89,76.92 -73.46,0 -136.21,-25.76 -188.23,-77.26 -52.03,-51.51 -78.13,-113.56 -78.13,-186.16 0,-73.98 26.1,-136.21 78.13,-186.68 52.03,-50.47 116.33,-75.71 192.73,-75.71zm-5.01 186.68c-20.4,0 -37.51,7.43 -51.68,22.13 -14.17,14.69 -21.26,32.67 -21.26,54.1 0,20.91 7.09,38.89 21.44,53.93 14.34,14.86 31.46,22.29 51.51,22.29 20.22,0 37.51,-7.43 51.86,-22.29 14.35,-15.04 21.43,-33.02 21.43,-53.93 0,-21.43 -7.09,-39.41 -21.26,-54.1 -14.17,-14.69 -31.46,-22.13 -52.03,-22.13zm655.8 -362.99l189.79 0 0 421.24c0,77.44 -20.22,140.35 -60.84,189.1 -23.34,28 -53.06,50.3 -89.02,66.89 -35.95,16.59 -72.94,24.89 -110.8,24.89 -75.36,0 -138.97,-25.41 -190.65,-76.05 -51.68,-50.65 -77.61,-112.87 -77.61,-186.68 0,-71.21 25.76,-132.92 77.09,-184.95 51.34,-52.03 112.01,-78.13 182.36,-78.13 11.06,0 28,1.04 50.65,3.28l0 208.63c-15.55,-11.92 -31.11,-17.98 -46.67,-17.98 -19.71,0 -36.47,7.26 -50.47,21.61 -14,14.34 -21.09,31.63 -21.09,52.03 0,19.53 7.26,36.47 21.78,50.47 14.69,14 31.98,21.09 52.37,21.09 48.74,0 73.12,-33.71 73.12,-101.29l0 -414.15zm785.44 469.81l-287.11 0c-3.98,-14.52 -6.05,-27.66 -6.05,-39.75 0,-16.77 2.94,-33.36 8.64,-49.44l96.28 0c-6.74,-38.03 -27.83,-57.04 -63.27,-57.04 -23.68,0 -42.87,10.03 -57.73,30.25 -14.86,20.05 -22.3,45.98 -22.3,77.44 0,32.84 7.09,59.29 21.43,79.68 14.35,20.22 33.19,30.42 56.52,30.42 18.84,0 37.16,-9.51 54.62,-28.52l107.86 129.81c-50.3,39.59 -106.31,59.46 -167.84,59.46 -74.85,0 -137.94,-25.23 -188.93,-75.54 -50.99,-50.47 -76.57,-112.7 -76.57,-187.2 0,-73.98 25.76,-136.55 77.27,-187.55 51.68,-50.99 114.95,-76.57 189.96,-76.57 73.29,0 135,24.89 184.78,74.85 49.96,49.78 74.85,111.14 74.85,184.26 0,7.43 -0.87,19.19 -2.42,35.44z"/>
    <path class="fil1" d="M2530.54 67.36l0 193.94 85.04 0 0 200.16 -85.04 0c0,40.1 6.22,67.76 18.84,82.97 12.62,15.21 35.78,22.82 69.31,22.82l0 198.95c-9.85,0.17 -17.11,0.17 -21.78,0.17 -42.87,0 -83.31,-10.02 -121.17,-29.9 -38.02,-19.88 -68.45,-46.84 -91.44,-80.89 -29.04,-43.38 -43.56,-101.12 -43.56,-172.85l0 -415.36 189.79 0zm367.65 0l0 211.57c31.98,-23.51 63.96,-35.26 95.94,-35.26 48.57,0 86.94,17.63 115.46,52.72 28.52,35.26 42.69,82.62 42.69,142.6l0 320.12 -189.79 0 0 -267.05c0,-21.43 -2.25,-35.95 -6.74,-43.39 -4.49,-7.43 -13.13,-11.06 -26.1,-11.06 -20.91,0 -31.46,15.56 -31.46,46.84l0 274.66 -189.79 0 0 -691.75 189.79 0zm364.72 193.94l189.79 0 0 285.2c0,29.04 11.76,43.56 35.44,43.56 23.34,0 35.09,-14.52 35.09,-43.56l0 -285.2 189.79 0 0 281.57c0,65.68 -21.78,120.99 -65.34,166.11 -43.56,45.12 -96.8,67.76 -159.89,67.76 -71.91,0 -129.81,-26.28 -173.72,-78.65 -34.05,-40.97 -51.16,-97.66 -51.16,-170.43l0 -266.36zm841.61 308.37l0 196.01c-15.55,2.59 -29.73,3.8 -42.52,3.8 -75.88,0 -138.97,-25.06 -189.62,-75.02 -50.65,-49.96 -75.88,-112.53 -75.88,-187.89 0,-73.29 25.58,-135.34 76.75,-186.34 50.99,-50.99 113.22,-76.57 186.51,-76.57 81.58,0 145.88,23.85 193.07,71.73 47.02,47.88 70.52,113.22 70.52,196.01l0 247.7 -189.79 0 0 -234.04c0,-26.62 -6.39,-47.88 -19.36,-63.78 -12.79,-15.73 -30.25,-23.68 -52.03,-23.68 -19.71,0 -36.82,7.26 -51.17,21.78 -14.34,14.52 -21.61,31.63 -21.61,51.51 0,20.91 6.57,38.2 19.53,51.68 13.13,13.48 29.73,20.22 49.78,20.22 16.42,0 31.8,-4.32 45.8,-13.13zm-34.74 -500.06l141.39 135.69 -118.57 0 -22.82 -24.72 -25.76 24.72 -108.38 0 134.14 -135.69zm813.44 689.5l-189.79 0 0 -285.2c0,-29.04 -11.75,-43.56 -35.43,-43.56 -23.34,0 -35.09,14.52 -35.09,43.56l0 285.2 -189.79 0 0 -281.75c0,-65.69 21.78,-121.17 65.34,-166.11 43.56,-45.11 96.8,-67.58 160.06,-67.58 72.08,0 129.98,26.1 173.54,78.48 34.05,40.79 51.17,97.66 51.17,170.43l0 266.54z"/>
   </g>
   <polygon class="fil2 str0" points="4205.23,8.78 4257.16,120.5 4208.8,119.85 4107.83,3.63 "/>
  </g>
 </g>
</svg>
